<svg viewBox="0 0 68.892 27.881" xmlns="http://www.w3.org/2000/svg" xmlns:xlink="http://www.w3.org/1999/xlink"><marker id="a" orient="auto" overflow="visible"><path d="m-2.5-1c0 2.76-2.24 5-5 5s-5-2.24-5-5 2.24-5 5-5 5 2.24 5 5z" fill-rule="evenodd" stroke="#000" stroke-width="1pt" transform="matrix(.4 0 0 .4 2.96 .4)"/></marker><marker id="b" orient="auto" overflow="visible"><path d="m-2.5-1c0 2.76-2.24 5-5 5s-5-2.24-5-5 2.24-5 5-5 5 2.24 5 5z" fill-rule="evenodd" stroke="#000" stroke-width="1pt" transform="matrix(.4 0 0 .4 2.96 .4)"/></marker><marker id="c" orient="auto" overflow="visible"><path d="m-2.5-1c0 2.76-2.24 5-5 5s-5-2.24-5-5 2.24-5 5-5 5 2.24 5 5z" fill-rule="evenodd" stroke="#000" stroke-width="1pt" transform="matrix(.4 0 0 .4 2.96 .4)"/></marker><marker id="d" orient="auto" overflow="visible"><path d="m-2.5-1c0 2.76-2.24 5-5 5s-5-2.24-5-5 2.24-5 5-5 5 2.24 5 5z" fill-rule="evenodd" stroke="#000" stroke-width="1pt" transform="matrix(.4 0 0 .4 2.96 .4)"/></marker><marker id="e" orient="auto" overflow="visible"><path d="m-2.5-1c0 2.76-2.24 5-5 5s-5-2.24-5-5 2.24-5 5-5 5 2.24 5 5z" fill-rule="evenodd" stroke="#000" stroke-width="1pt" transform="matrix(.4 0 0 .4 2.96 .4)"/></marker><marker id="f" orient="auto" overflow="visible"><path d="m-2.5-1c0 2.76-2.24 5-5 5s-5-2.24-5-5 2.24-5 5-5 5 2.24 5 5z" fill-rule="evenodd" stroke="#000" stroke-width="1pt" transform="matrix(.4 0 0 .4 2.96 .4)"/></marker><path d="m0 0h68.892v27.881h-68.892z" fill="#fff"/><path d="m5.3414 4.019h2.6458v1.3229h-2.6458z" fill="#d2e4d8" marker-end="url(#f)" marker-start="url(#e)" stroke-width="0"/><path d="m5.3414 6.664h2.6458v1.3229h-2.6458z" fill="#d2e4d8" marker-end="url(#f)" marker-start="url(#e)" stroke-width="0"/><path d="m5.3414 9.31h2.6458v1.3229h-2.6458z" fill="#d2e4d8" marker-end="url(#f)" marker-start="url(#e)" stroke-width="0"/><path d="m5.3414 11.956h2.6458v1.3229h-2.6458z" fill="#d2e4d8" marker-end="url(#f)" marker-start="url(#e)" stroke-width="0"/><path d="m5.3414 14.602h2.6458v1.3229h-2.6458z" fill="#d2e4d8" marker-end="url(#f)" marker-start="url(#e)" stroke-width="0"/><path d="m5.3414 17.248h2.6458v1.3229h-2.6458z" fill="#d2e4d8" marker-end="url(#f)" marker-start="url(#e)" stroke-width="0"/><path d="m5.3414 19.894h2.6458v1.3229h-2.6458z" fill="#d2e4d8" marker-end="url(#f)" marker-start="url(#e)" stroke-width="0"/><path d="m5.3414 22.54h2.6458v1.3229h-2.6458z" fill="#d2e4d8" marker-end="url(#f)" marker-start="url(#e)" stroke-width="0"/><path d="m9.3104 4.019h3.9688v3.9688h-3.9688z" fill="#d2e4d8" marker-end="url(#f)" marker-start="url(#e)" stroke-width="0"/><path d="m9.3104 9.31h3.9688v3.9688h-3.9688z" fill="#d2e4d8" marker-end="url(#f)" marker-start="url(#e)" stroke-width="0"/><path d="m9.3104 14.602h3.9688v3.9688h-3.9688z" fill="#d2e4d8" marker-end="url(#f)" marker-start="url(#e)" stroke-width="0"/><path d="m9.3104 19.894h3.9688v3.9688h-3.9688z" fill="#d2e4d8" marker-end="url(#f)" marker-start="url(#e)" stroke-width="0"/><path d="m18.5704 4.019h6.6146v9.2604h-6.6146z" fill="#d2e4d8" marker-end="url(#f)" marker-start="url(#e)" stroke-width="0"/><path d="m18.5704 14.602h6.6146v9.2604h-6.6146z" fill="#d2e4d8" marker-end="url(#f)" marker-start="url(#e)" stroke-width="0"/><path d="m35.7684 4.019h11.906v19.844h-11.906z" fill="#d2e4d8" marker-end="url(#f)" marker-start="url(#e)" stroke-width="0"/><g fill="#f3eddd"><path d="m14.6024 4.019h2.6458v1.3229h-2.6458z"/><path d="m14.6024 9.31h2.6458v1.3229h-2.6458z"/><path d="m14.6024 11.956h2.6458v1.3229h-2.6458z"/><path d="m14.6024 14.602h2.6458v1.3229h-2.6458z"/><path d="m14.6024 17.248h2.6458v1.3229h-2.6458z"/><path d="m14.6024 19.894h2.6458v1.3229h-2.6458z"/><path d="m14.6024 22.54h2.6458v1.3229h-2.6458z"/><path d="m26.5084 9.31h3.9688v3.9688h-3.9688z"/><path d="m26.5084 14.602h3.9688v3.9688h-3.9688z"/><path d="m26.5084 19.894h3.9688v3.9688h-3.9688z"/><path d="m26.5084 4.019h3.9688v3.9688h-3.9688z"/><path d="m48.9974 4.019h6.6146v9.2604h-6.6146z"/><path d="m48.9974 14.602h6.6146v9.2604h-6.6146z"/><path d="m56.9354 4.019h3.9688v3.9688h-3.9688z"/><path d="m56.9354 9.31h3.9688v3.9688h-3.9688z"/><path d="m56.9354 14.602h3.9688v3.9688h-3.9688z"/><path d="m56.9354 19.894h3.9688v3.9688h-3.9688z"/><path d="m62.2274 4.019h2.6458v1.3229h-2.6458z"/><path d="m62.2274 6.664h2.6458v1.3229h-2.6458z"/><path d="m62.2274 9.31h2.6458v1.3229h-2.6458z"/><path d="m62.2274 11.956h2.6458v1.3229h-2.6458z"/><path d="m62.2274 14.602h2.6458v1.3229h-2.6458z"/><path d="m62.2274 17.248h2.6458v1.3229h-2.6458z"/><path d="m62.2274 19.894h2.6458v1.3229h-2.6458z"/><path d="m62.2274 22.54h2.6458v1.3229h-2.6458z"/><path d="m14.6024 6.664h2.6458v1.3229h-2.6458z"/><path d="m31.8004 4.019h2.6458v1.3229h-2.6458z"/><path d="m31.8004 6.664h2.6458v1.3229h-2.6458z"/><path d="m31.8004 9.31h2.6458v1.3229h-2.6458z"/><path d="m31.8004 11.956h2.6458v1.3229h-2.6458z"/><path d="m31.8004 14.602h2.6458v1.3229h-2.6458z"/><path d="m31.8004 17.248h2.6458v1.3229h-2.6458z"/><path d="m31.8004 19.894h2.6458v1.3229h-2.6458z"/><path d="m31.8004 22.54h2.6458v1.3229h-2.6458z"/></g><g fill="#d2e4d8" stroke="#000" stroke-linejoin="round" stroke-width=".1" transform="translate(-6.5646 -48.898)"><path d="m10.583 52.917h62.177"/><path d="m10.583 54.24h62.177"/><path d="m10.583 55.563h62.177"/><path d="m10.583 56.885h62.177"/><path d="m10.583 58.208h62.177"/><path d="m10.583 59.531h62.177"/><path d="m10.583 60.854h62.177"/><path d="m10.583 62.177h62.177"/><path d="m10.583 63.5h62.177"/><path d="m10.583 64.823h62.177"/><path d="m10.583 66.146h62.177"/><path d="m10.583 67.469h62.177"/><path d="m10.583 68.792h62.177"/><path d="m10.583 70.115h62.177"/><path d="m10.583 71.438h62.177"/><path d="m10.583 72.76h62.177"/></g><g fill="#d2e4d8" stroke="#000" stroke-linejoin="round" stroke-width=".1" transform="translate(-6.5646 -48.898)"><path d="m13.229 52.917v1.3229" marker-end="url(#b)" marker-start="url(#a)"/><path d="m13.229 55.563v1.3229" marker-end="url(#b)" marker-start="url(#a)"/><path d="m13.229 58.208v1.3229" marker-end="url(#b)" marker-start="url(#a)"/><path d="m13.229 60.854v1.3229" marker-end="url(#b)" marker-start="url(#a)"/><path d="m13.229 63.5v1.3229" marker-end="url(#b)" marker-start="url(#a)"/><path d="m13.229 66.146v1.3229" marker-end="url(#b)" marker-start="url(#a)"/><path d="m13.229 68.792v1.3229" marker-end="url(#b)" marker-start="url(#a)"/><path d="m13.229 71.438v1.3229" marker-end="url(#b)" marker-start="url(#a)"/><path d="m17.198 52.917v3.9688" marker-end="url(#a)" marker-start="url(#a)"/><path d="m17.198 58.208v3.9688" marker-end="url(#a)" marker-start="url(#a)"/><path d="m17.198 63.5v3.9688" marker-end="url(#a)" marker-start="url(#a)"/><path d="m17.198 68.792v3.9688" marker-end="url(#a)" marker-start="url(#a)"/><path d="m18.52 54.24v1.3229" marker-end="url(#a)" marker-start="url(#a)"/><path d="m18.52 59.531v1.3229" marker-end="url(#a)" marker-start="url(#a)"/><path d="m18.52 64.823v1.3229" marker-end="url(#a)" marker-start="url(#a)"/><path d="m18.52 70.115v1.3229" marker-end="url(#a)" marker-start="url(#a)"/><g marker-end="url(#d)" marker-start="url(#c)"><path d="m22.49 52.917v1.3229"/><path d="m22.49 55.563v1.3229"/><path d="m22.49 58.208v1.3229"/><path d="m22.49 60.854v1.3229"/><path d="m22.49 63.5v1.3229"/><path d="m22.49 66.146v1.3229"/><path d="m22.49 68.792v1.3229"/><path d="m22.49 71.438v1.3229"/><path d="m26.458 52.917v9.2604"/><path d="m26.458 63.5v9.2604"/><path d="m27.781 54.24v6.6146"/><path d="m29.104 55.563v3.9688"/><path d="m30.427 56.885v1.3229"/><path d="m27.781 64.823v6.6146"/><path d="m29.104 66.146v3.9688"/><path d="m30.427 67.469v1.3229"/><path d="m34.396 52.917v2.6458"/><path d="m35.719 54.24v2.6458"/><path d="m34.396 58.208v2.6458"/><path d="m35.719 59.531v2.6458"/><path d="m34.396 63.5v2.6458"/><path d="m35.719 64.823v2.6458"/><path d="m34.396 68.792v2.6458"/><path d="m35.719 70.115v2.6458"/><path d="m39.688 52.917v1.3229"/><path d="m39.688 55.563v1.3229"/><path d="m39.688 58.208v1.3229"/><path d="m39.688 60.854v1.3229"/><path d="m39.688 63.5v1.3229"/><path d="m39.688 66.146v1.3229"/><path d="m39.688 68.792v1.3229"/><path d="m39.688 71.438v1.3229"/><path d="m43.656 52.917v19.844"/><path d="m44.979 71.438v-17.198"/><path d="m46.302 55.563v14.552"/><path d="m47.625 68.792v-11.906"/><path d="m48.948 58.208v9.2604"/><path d="m50.271 66.146v-6.6146"/><path d="m51.594 60.854v3.9687"/><path d="m52.917 62.177v1.3229"/><path d="m64.823 52.917v2.6458"/><path d="m66.146 54.24v2.6458"/><path d="m64.823 58.208v2.6458"/><path d="m66.146 59.531v2.6458"/><path d="m64.823 63.5v2.6458"/><path d="m66.146 64.823v2.6458"/><path d="m64.823 68.792v2.6458"/><path d="m66.146 70.115v2.6458"/><path d="m70.115 52.917v1.3229"/><path d="m70.115 55.563v1.3229"/><path d="m70.115 58.208v1.3229"/><path d="m70.115 60.854v1.3229"/><path d="m70.115 63.5v1.3229"/><path d="m70.115 66.146v1.3229"/><path d="m70.115 68.792v1.3229"/><path d="m70.115 71.438v1.3229"/><path d="m56.885 52.917v5.2917"/><path d="m58.208 54.24v5.2917"/><path d="m59.531 55.563v5.2917"/><path d="m60.854 56.885v5.2917"/><path d="m56.885 63.5v5.2917"/><path d="m58.208 64.823v5.2917"/><path d="m59.531 66.146v5.2917"/><path d="m60.854 67.469v5.2917"/></g></g><g font-family="IBM Plex Mono" font-size=".79375" letter-spacing="0" stroke-width=".26458" transform="translate(-6.5646 -48.898)" word-spacing="0"><text x="9.024495" y="53.185135"><tspan stroke-width=".26458" x="9.024495" y="53.185135">0</tspan></text><text x="9.024495" y="54.50848"><tspan stroke-width=".26458" x="9.024495" y="54.50848">1</tspan></text><text x="9.024495" y="55.831394"><tspan stroke-width=".26458" x="9.024495" y="55.831394">2</tspan></text><text x="9.024495" y="57.154739"><tspan stroke-width=".26458" x="9.024495" y="57.154739">3</tspan></text><text x="9.024495" y="58.47723"><tspan stroke-width=".26458" x="9.024495" y="58.47723">4</tspan></text><text x="9.024495" y="59.800575"><tspan stroke-width=".26458" x="9.024495" y="59.800575">5</tspan></text><text x="9.024495" y="61.123489"><tspan stroke-width=".26458" x="9.024495" y="61.123489">6</tspan></text><text x="9.024495" y="62.446835"><tspan stroke-width=".26458" x="9.024495" y="62.446835">7</tspan></text><text x="9.024495" y="63.768894"><tspan stroke-width=".26458" x="9.024495" y="63.768894">8</tspan></text><text x="9.024495" y="65.092239"><tspan stroke-width=".26458" x="9.024495" y="65.092239">9</tspan></text><text x="9.024495" y="66.415154"><tspan stroke-width=".26458" x="9.024495" y="66.415154">10</tspan></text><text x="9.024495" y="67.738503"><tspan stroke-width=".26458" x="9.024495" y="67.738503">11</tspan></text><text x="9.024495" y="69.060989"><tspan stroke-width=".26458" x="9.024495" y="69.060989">12</tspan></text><text x="9.024495" y="70.384338"><tspan stroke-width=".26458" x="9.024495" y="70.384338">13</tspan></text><text x="9.024495" y="71.707253"><tspan stroke-width=".26458" x="9.024495" y="71.707253">14</tspan></text><text x="9.024495" y="73.030594"><tspan stroke-width=".26458" x="9.024495" y="73.030594">15</tspan></text></g></svg>